<svg id="bold" enable-background="new 0 0 32 32" height="512" viewBox="0 0 32 32" width="512" xmlns="http://www.w3.org/2000/svg"><path d="m26 32h-20c-3.314 0-6-2.686-6-6v-20c0-3.314 2.686-6 6-6h20c3.314 0 6 2.686 6 6v20c0 3.314-2.686 6-6 6z" fill="#ffe6e2"/><path d="m20 14c-1.103 0-2-.897-2-2s.897-2 2-2 2 .897 2 2-.897 2-2 2zm0-3c-.551 0-1 .449-1 1s.449 1 1 1 1-.449 1-1-.449-1-1-1z" fill="#fd907e"/><path d="m20 16c-2.206 0-4-1.794-4-4s1.794-4 4-4 4 1.794 4 4v.5c0 .827-.673 1.5-1.5 1.5s-1.5-.673-1.5-1.5v-2c0-.276.224-.5.5-.5s.5.224.5.5v2c0 .275.224.5.5.5s.5-.225.5-.5v-.5c0-1.654-1.346-3-3-3s-3 1.346-3 3 1.346 3 3 3c.276 0 .5.224.5.5s-.224.5-.5.5z" fill="#fd907e"/><g fill="#fc573b"><path d="m14 16.667c-.735 0-1.333-.598-1.333-1.333 0-.736.598-1.334 1.333-1.334s1.333.598 1.333 1.333-.598 1.334-1.333 1.334z"/><path d="m16.167 20h-4.333c-.276 0-.5-.224-.5-.5v-.333c0-1.011.822-1.833 1.833-1.833h1.667c1.011 0 1.833.822 1.833 1.833v.333c0 .276-.224.5-.5.5z"/><path d="m22.667 15.327v4.007h-13.334v-7.334h5.333c0-.46.06-.907.167-1.333h-5.666c-.64 0-1.167.526-1.167 1.166v9c0 .64.527 1.167 1.167 1.167h5.107c-.08.333-.287.873-.84 1.433-.1.093-.127.233-.073.36.052.127.172.207.306.207h4.667c.133 0 .253-.08.307-.207.053-.127.027-.267-.073-.36-.555-.553-.768-1.1-.848-1.433h5.113c.64 0 1.167-.527 1.167-1.167v-5.94c-.387.254-.847.407-1.333.434z"/></g></svg>